HIERARCHY
ROOT Hips
{
	OFFSET 0.00000 0.00000 0.00000
	CHANNELS 6 Xposition Yposition Zposition Zrotation Yrotation Xrotation 
	JOINT LHipJoint
	{
		OFFSET 0 0 0
		CHANNELS 3 Zrotation Yrotation Xrotation
		JOINT LeftUpLeg
		{
			OFFSET 1.30186 -1.90722 0.65024
			CHANNELS 3 Zrotation Yrotation Xrotation
			JOINT LeftLeg
			{
				OFFSET 2.56413 -7.04489 0.00000
				CHANNELS 3 Zrotation Yrotation Xrotation
				JOINT LeftFoot
				{
					OFFSET 2.79321 -7.67428 0.00000
					CHANNELS 3 Zrotation Yrotation Xrotation
					JOINT LeftToeBase
					{
						OFFSET 0.15723 -0.43198 2.08537
						CHANNELS 3 Zrotation Yrotation Xrotation
						End Site
						{
							OFFSET 0.00000 -0.00000 1.07411
						}
					}
				}
			}
		}
	}
	JOINT RHipJoint
	{
		OFFSET 0 0 0
		CHANNELS 3 Zrotation Yrotation Xrotation
		JOINT RightUpLeg
		{
			OFFSET -1.28627 -1.90723 0.65024
			CHANNELS 3 Zrotation Yrotation Xrotation
			JOINT RightLeg
			{
				OFFSET -2.56567 -7.04913 0.00000
				CHANNELS 3 Zrotation Yrotation Xrotation
				JOINT RightFoot
				{
					OFFSET -2.75597 -7.57198 0.00000
					CHANNELS 3 Zrotation Yrotation Xrotation
					JOINT RightToeBase
					{
						OFFSET -0.17500 -0.48081 2.22901
						CHANNELS 3 Zrotation Yrotation Xrotation
						End Site
						{
							OFFSET -0.00000 -0.00000 1.14762
						}
					}
				}
			}
		}
	}
	JOINT LowerBack
	{
		OFFSET 0 0 0
		CHANNELS 3 Zrotation Yrotation Xrotation
		JOINT Spine
		{
			OFFSET -0.04522 2.07467 -0.16566
			CHANNELS 3 Zrotation Yrotation Xrotation
			JOINT Spine1
			{
				OFFSET -0.01178 2.08825 -0.05393
				CHANNELS 3 Zrotation Yrotation Xrotation
				JOINT Neck
				{
					OFFSET 0 0 0
					CHANNELS 3 Zrotation Yrotation Xrotation
					JOINT Neck1
					{
						OFFSET -0.05182 1.80489 0.16014
						CHANNELS 3 Zrotation Yrotation Xrotation
						JOINT Head
						{
							OFFSET 0.14739 1.78840 -0.33342
							CHANNELS 3 Zrotation Yrotation Xrotation
							End Site
							{
								OFFSET 0.04364 1.83899 -0.13460
							}
						}
					}
				}
				JOINT LeftShoulder
				{
					OFFSET 0 0 0
					CHANNELS 3 Zrotation Yrotation Xrotation
					JOINT LeftArm
					{
						OFFSET 3.01264 1.29090 -0.06579
						CHANNELS 3 Zrotation Yrotation Xrotation
						JOINT LeftForeArm
						{
							OFFSET 5.55680 -0.00000 0.00000
							CHANNELS 3 Zrotation Yrotation Xrotation
							JOINT LeftHand
							{
								OFFSET 3.63979 -0.00000 -0.00000
								CHANNELS 3 Zrotation Yrotation Xrotation
								JOINT LeftFingerBase
								{
									OFFSET 0 0 0
									CHANNELS 3 Zrotation Yrotation Xrotation
									JOINT LeftHandIndex1
									{
										OFFSET 0.56942 -0.00000 -0.00000
										CHANNELS 3 Zrotation Yrotation Xrotation
										End Site
										{
											OFFSET 0.45908 -0.00000 -0.00000
										}
									}
								}
								JOINT LThumb
								{
									OFFSET 0 0 0
									CHANNELS 3 Zrotation Yrotation Xrotation
									End Site
									{
										OFFSET 0.46609 -0.00000 0.46609
									}
								}
							}
						}
					}
				}
				JOINT RightShoulder
				{
					OFFSET 0 0 0
					CHANNELS 3 Zrotation Yrotation Xrotation
					JOINT RightArm
					{
						OFFSET -3.15796 1.37283 -0.36748
						CHANNELS 3 Zrotation Yrotation Xrotation
						JOINT RightForeArm
						{
							OFFSET -5.34339 -0.00000 0.00000
							CHANNELS 3 Zrotation Yrotation Xrotation
							JOINT RightHand
							{
								OFFSET -3.65101 -0.00000 -0.00000
								CHANNELS 3 Zrotation Yrotation Xrotation
								JOINT RightFingerBase
								{
									OFFSET 0 0 0
									CHANNELS 3 Zrotation Yrotation Xrotation
									JOINT RightHandIndex1
									{
										OFFSET -0.69425 -0.00000 -0.00000
										CHANNELS 3 Zrotation Yrotation Xrotation
										End Site
										{
											OFFSET -0.55972 -0.00000 -0.00000
										}
									}
								}
								JOINT RThumb
								{
									OFFSET 0 0 0
									CHANNELS 3 Zrotation Yrotation Xrotation
									End Site
									{
										OFFSET -0.56827 -0.00000 0.56827
									}
								}
							}
						}
					}
				}
			}
		}
	}
}
MOTION
Frames: 5
Frame Time: .0083333
13.7058 18.5243 -6.9266 1.7761 -9.4322 2.7506 0.0000 0.0000 0.0000 -21.4777 -8.2048 -13.3931 1.6337 8.0573 22.8881 0.5150 1.7248 -14.2915 0.1861 2.7784 7.6624 0.0000 0.0000 0.0000 13.5883 13.7562 -2.0741 -1.7242 -8.2663 23.5259 -0.5075 -1.6524 -14.1570 -0.0299 -1.1163 3.0690 -5.3702 0.7320 -0.1741 -0.5444 1.0026 0.4778 2.4550 0.4788 0.5070 -9.4271 -8.3560 -10.5381 3.5602 -10.5222 18.9269 1.5848 -5.3412 8.3137 0.0000 -0.0000 0.0000 -81.4141 0.7439 25.7913 23.9594 -35.1213 -7.6832 -0.0000 0.0000 -16.0775 27.0272 21.3823 10.5358 -7.1250 0.0000 -0.0000 -1.7677 53.6986 -0.3782 0.0000 -0.0000 0.0000 88.7811 -5.0456 45.6141 -53.3710 54.2678 -28.8890 0.0000 -0.0000 -10.9082 -40.8703 26.7469 -21.2778 7.1250 -0.0000 -0.0000 -6.2745 3.5223 -6.6874
13.7045 18.5196 -6.9445 1.9239 -9.5237 2.6049 0.0000 0.0000 0.0000 -21.6335 -8.0293 -13.3080 1.6193 8.0234 22.7851 0.5112 1.6756 -14.2168 0.1944 2.8397 7.8328 0.0000 0.0000 0.0000 13.4571 13.6297 -1.8246 -1.6857 -8.1782 23.2567 -0.4997 -1.7709 -14.1135 -0.0001 -0.0700 0.1923 -5.3884 0.8083 -0.0743 -0.4798 1.0989 0.5163 2.5306 0.5266 0.4811 -9.6188 -8.3056 -10.5613 3.7174 -10.4368 18.6870 1.6790 -5.2975 8.2513 0.0000 -0.0000 0.0000 -81.5965 0.4655 26.0575 23.8561 -35.0117 -7.6238 -0.0000 0.0000 -14.9175 26.5546 21.2987 10.2890 -7.1250 0.0000 -0.0000 -2.2400 53.5151 -0.4692 0.0000 -0.0000 0.0000 88.7317 -5.0354 45.1403 -54.0528 54.5048 -29.4433 0.0000 -0.0000 -10.3203 -40.7985 26.6310 -21.1511 7.1250 -0.0000 -0.0000 -6.2612 3.3623 -6.6566
13.6996 18.5230 -6.9712 1.9102 -9.7105 2.5699 0.0000 0.0000 0.0000 -21.5715 -7.8241 -13.3889 1.6110 8.0038 22.7256 0.5063 1.6519 -14.1421 0.1974 2.8609 7.8918 0.0000 0.0000 0.0000 13.5194 13.7335 -1.6294 -1.6435 -8.0803 22.9581 -0.5057 -1.7628 -14.1882 -0.0029 0.3461 -0.9509 -5.2612 0.8920 -0.0035 -0.4021 1.2066 0.5608 2.5388 0.5801 0.4790 -9.6014 -8.2696 -10.7286 3.6805 -10.3534 18.4030 1.6717 -5.2553 8.1770 0.0000 -0.0000 0.0000 -81.6952 0.1045 26.3275 23.8416 -34.9963 -7.6155 -0.0000 0.0000 -14.3336 26.3765 21.0315 10.0911 -7.1250 0.0000 -0.0000 -2.3555 53.1924 -0.4749 0.0000 -0.0000 0.0000 88.5425 -4.8735 45.0124 -54.6854 54.7189 -29.9590 0.0000 -0.0000 -10.0678 -40.8841 26.5351 -21.1448 7.1250 -0.0000 -0.0000 -6.3328 3.2825 -6.7253
13.6934 18.5366 -6.9958 1.6871 -9.8846 2.6646 0.0000 0.0000 0.0000 -21.2536 -7.7280 -13.5474 1.6026 7.9839 22.6652 0.4996 1.6752 -14.0648 0.2376 3.1371 8.6606 0.0000 0.0000 0.0000 13.7979 14.4416 -1.3534 -1.6136 -8.0101 22.7448 -0.5533 -1.2755 -14.5709 -0.0648 -1.6427 4.5192 -4.9551 0.8033 -0.0699 -0.3400 1.0922 0.5903 2.4326 0.5218 0.5602 -9.2803 -8.0601 -10.7084 3.6656 -10.1059 17.9542 1.6553 -5.1165 7.9860 0.0000 -0.0000 0.0000 -81.5333 -0.1224 26.3826 23.8349 -34.9891 -7.6117 -0.0000 0.0000 -13.9964 26.8874 20.3661 10.0076 -7.1250 0.0000 -0.0000 -1.6627 52.5702 -0.3098 0.0000 -0.0000 0.0000 88.4732 -4.8349 45.3994 -55.3762 54.9463 -30.5237 0.0000 -0.0000 -9.7786 -41.1268 26.8743 -21.5395 7.1250 -0.0000 -0.0000 -6.3894 3.7637 -6.8365
13.6886 18.5464 -7.0164 1.3353 -9.9729 2.8591 0.0000 0.0000 0.0000 -20.7884 -7.7385 -13.7317 1.5833 7.9382 22.5264 0.4876 1.7308 -13.9317 0.2857 3.4375 9.4992 0.0000 0.0000 0.0000 14.1990 14.7524 -1.3303 -1.5964 -7.9692 22.6207 -0.5705 -1.0037 -14.6661 -0.1574 -2.5565 7.0464 -4.4814 0.6847 -0.1552 -0.2600 0.9333 0.4695 2.2494 0.4479 0.5022 -9.0262 -7.8239 -10.3283 3.7285 -9.8573 17.4386 1.6885 -4.9812 7.7189 -0.0000 -0.0000 0.0000 -81.3329 -0.0988 26.5338 23.7579 -34.9072 -7.5676 -0.0000 0.0000 -13.5795 26.9078 19.6738 9.6958 -7.1250 0.0000 -0.0000 -1.4832 51.8218 -0.2492 -0.0000 -0.0000 0.0000 88.5345 -4.8620 45.7923 -55.7320 55.0610 -30.8152 0.0000 -0.0000 -9.4451 -41.0006 26.7896 -21.3957 7.1250 -0.0000 -0.0000 -6.3382 3.6194 -6.7662
